<svg version="1.1" id="illu" xmlns="http://www.w3.org/2000/svg" xmlns:xlink="http://www.w3.org/1999/xlink" x="0px" y="0px"
	 width="422.377px" height="331.207px" viewBox="0 0 422.377 331.207" enable-background="new 0 0 422.377 331.207"
	 xml:space="preserve">
<path class="bike" fill="none" stroke="#999999" stroke-miterlimit="10" d="M352.6,189.285c-7.75,0-15.205,1.289-22.178,3.642
	c-0.442-1.493-0.901-3.021-1.369-4.561c7.396-2.487,15.317-3.833,23.547-3.833c2.557,0,5.088,0.128,7.576,0.38
	c0,0,0.081-2.238,4.628-3.483c4.547-1.238-9.384-1.477-9.384-1.477c-2.492-0.251-5.015-0.383-7.566-0.383
	c-7.172,0-14.109,1.021-20.664,2.927c-3.998-12.387-8.244-23.991-8.244-23.994l-1.892-13.28c0,0-0.06,0.014-0.146,0.029
	l-13.543-77.068c3.795-0.813,6.444-2.136,6.3-3.293c-0.141-1.145-2.981-1.773-6.798-1.654l-3.049-21.014l-2.782-26.788
	c2.136-2.144,3.101-5.347,2.233-8.474c-1.271-4.652-6.074-7.388-10.724-6.111c-1.417,0.378-2.642,1.098-3.642,2.037l-2.467-0.421
	c-1.586-1.638-3.981-2.382-6.338-1.731c-3.437,0.944-5.457,4.492-4.513,7.924c0.944,3.441,4.491,5.467,7.921,4.518
	c0.659-0.179,1.255-0.451,1.803-0.804l1.502,0.26c1.088,2.611,3.335,4.462,5.963,5.112l0.293,1.527l0,0l6.742,44.939
	c-3.245,0.815-5.414,2.006-5.295,3.053c0.132,1.055,2.556,1.676,5.934,1.672l6.58,79.436c-1.569,0.403-2.863,0.773-3.619,1.071
	c-6.164,2.441-17.883,8.805-24.127,11.081c-24.398,8.902-90.673,25.798-114.297,31.731l-3.619-11.272
	c1.952-1.127,3.07-2.258,2.82-3.041c-0.32-0.991-2.736-1.17-5.964-0.583l-29.767-91.085l9.319-6.879
	c0.153-0.119,1.688-1.037,2.961-1.857c4.7,0.225,9.188,0.676,13.021,1.19c0.336,0.067,0.734,0.067,0.889-0.218
	c0.851-1.514,0.82-3.189,0.225-4.66c-1.174-2.617-3.819-8.853-6.652-8.875c-22.377-6.801-46.3,0.588-65.679-3.109h-0.005
	c-2.007,0-3.683,1.532-3.776,3.549c-0.251,2.488,0,5.13,0.229,7.545c5.428,4.629,10.872,8.002,16.93,11.098l7.252,6.428
	c0.455,0.396,0.97,0.74,1.557,0.668l17.095-2.441l28.745,91.055c-3.104,1.417-5.087,3.012-4.76,4.037
	c0.273,0.855,2.11,1.102,4.688,0.777l3.055,9.444c-1.408,0.757-3.407,1.85-5.874,3.232c-14.79-11.655-29.247-17.499-36.296-19.89
	c4.343-1.578,8.107-4.101,9.175-5.684c0.596-0.884,0.511-1.585,0.336-2.023c-0.183-0.447-0.701-1.205-2.156-1.205
	c-1.706,0-4.802,0.987-8.384,2.17c-1.152,0.384-2.445,0.809-2.857,0.894c-0.073,0.005-0.307,0.017-0.975,0.017
	c-5.355,0-28.091-0.582-46.355-1.042c-13.62-0.34-25.377-0.638-27.448-0.638c-2.199,0-5.007-1.455-7.47-2.727
	c-2.275-1.179-4.07-2.105-5.575-2.105c-1.119,0-1.774,0.515-2.132,0.957c-0.506,0.612-1.212,1.931-0.306,3.836
	c1.634,3.455,8.256,7.347,10.8,7.347c0.093,0,0.297,0,0.587,0.004c2.415,1.578,9.234,6.456,17.49,16.023
	C17.553,204.713,0.5,229.678,0.5,258.546c0,39.788,32.37,72.161,72.153,72.161c39.788,0,72.157-32.373,72.157-72.161
	c0-1.089-0.025-2.161-0.077-3.233c3.386-0.434,6.011-0.757,7.474-0.948c3.463,13.931,16.049,24.25,31.047,24.25
	c17.428,0,31.596-13.931,31.99-31.264l7.941-0.974l-0.561,3.964c-0.162,1.161,0.646,2.259,1.833,2.424l3.046,0.426
	c1.174,0.166,2.263-0.655,2.424-1.82l2.008-14.206c0.166-1.179-0.65-2.26-1.824-2.426l-3.051-0.434
	c-1.182-0.166-2.263,0.646-2.428,1.838l-0.826,5.84l-8.749,1.071c-1.353-12.228-9.587-22.372-20.749-26.486l0,0
	c0,0,7.452-18.758,21.472-22.948l95.633-28.584c1.71,4.781,4.462,12.654,6.997,20.626c-26.215,11.392-44.561,37.508-44.561,67.925
	c0,3.672,0.426,7.261,0.787,10.809c0.251,2.415-0.991,7.584-2.441,10.685c-1.445,3.104,6.533-2.344,7.197-5.717
	c0.689-3.496-0.787-7.146-0.787-10.824c0-29.303,17.031-54.629,41.74-66.615c0.473,1.591,0.923,3.151,1.335,4.657
	c-22.705,11.383-38.329,34.875-38.329,61.958c0,38.196,31.073,69.269,69.257,69.269c38.197,0,69.269-31.072,69.269-69.269
	C421.869,220.354,390.801,189.285,352.6,189.285z M101.16,86.953l-1.974-1.815c4.041-1.093,8.435-3.884,10.854-5.071
	c5.832-1.85,12.604-2.552,19.286-2.645c-0.229,0.361-0.399,0.634-0.425,0.65l-8.436,6.215L101.16,86.953z M178.52,220.928
	c1.234-0.233,2.416,0.592,2.642,1.829c0.229,1.229-0.591,2.416-1.825,2.649c-3.012,0.549-5.814,1.701-8.336,3.45
	c-0.396,0.271-0.848,0.399-1.289,0.399c-0.723,0-1.434-0.34-1.872-0.978c-0.715-1.03-0.455-2.451,0.579-3.157
	C171.471,223,174.87,221.6,178.52,220.928z M142.105,198.137c-0.749,0.421-1.536,0.868-2.354,1.337
	c-13.988-11.656-28.051-18.002-36.209-21.026c0.356-0.072,0.714-0.149,1.066-0.233C110.14,179.906,125.848,185.47,142.105,198.137z
	 M127.384,258.546c0,30.192-24.556,54.747-54.747,54.747c-30.184,0-54.744-24.555-54.744-54.747
	c0-23.194,14.518-43.075,34.943-51.034c6.201,9.485,12.501,21.502,17.92,36.504c-7.555,0.583-13.5,6.896-13.5,14.607
	c0,8.081,6.559,14.645,14.641,14.645c6.346,0,11.752-4.045,13.785-9.687c6.738-1.353,25.572-3.93,41.685-6.038
	C127.375,257.883,127.384,258.215,127.384,258.546z M72.637,195.904c0.65,0,1.301,0.017,1.943,0.033
	c-0.191,1.188-0.379,2.438-0.565,3.757c-0.455-0.014-0.915-0.026-1.378-0.026c-3.356,0-6.648,0.285-9.859,0.834
	c-0.813-1.174-1.63-2.306-2.43-3.387C64.32,196.33,68.434,195.904,72.637,195.904z M53.746,188.911
	c-4.385-5.036-8.337-8.758-11.383-11.344c1.43,0.034,2.914,0.067,4.433,0.105c10.005,0.234,21.808,0.511,31.813,0.728
	c-0.485,1.392-1.302,4.007-2.225,8.091c-1.242-0.067-2.488-0.099-3.743-0.099C66.104,186.393,59.77,187.27,53.746,188.911z
	 M77.434,245.063c-1.084-0.447-2.236-0.774-3.436-0.94c0.148-16.997,1.16-30.217,2.402-40.188
	c12.82,0.876,24.433,6.185,33.331,14.395C98.123,226.372,86.299,235.615,77.434,245.063z M72.254,215.959
	c-2.28-4.235-4.607-8.124-6.917-11.663c2.391-0.323,4.828-0.489,7.3-0.489c0.28,0,0.553,0.01,0.833,0.01
	C73.023,207.435,72.611,211.477,72.254,215.959z M59.667,201.114c-2.187,0.497-4.33,1.114-6.418,1.847
	c-0.762-1.103-1.515-2.17-2.263-3.19c2.037-0.757,4.135-1.407,6.27-1.952C58.051,198.877,58.859,199.975,59.667,201.114z
	 M62.211,204.802c3.229,4.871,6.5,10.409,9.655,16.691c-0.289,4.743-0.522,9.919-0.65,15.56
	c-4.837-12.186-10.234-22.28-15.585-30.541C57.766,205.819,59.965,205.244,62.211,204.802z M86.532,258.295
	c-0.076-3.704-1.535-7.078-3.879-9.622c8.92-9.289,20.341-18.209,31.408-25.87c6.699,7.751,11.259,17.39,12.769,28.014
	L86.532,258.295z M117.498,220.455c1.06-0.706,2.11-1.411,3.152-2.101c7.27,8.673,12.237,19.315,13.965,31.013l-3.706,0.697
	C129.281,238.865,124.504,228.686,117.498,220.455z M113.232,215.942c-9.592-9.146-22.259-15.087-36.274-16.116
	c0.187-1.311,0.378-2.553,0.57-3.731c15.083,1.166,28.689,7.712,38.902,17.703C115.371,214.505,114.309,215.22,113.232,215.942z
	 M79.34,186.708c1.152-5.049,2.102-7.644,2.322-8.239c8.508,0.187,15.317,0.323,17.916,0.341c6.869,2.249,22.74,8.435,38.639,21.534
	c-3.989,2.314-8.625,5.075-13.611,8.193C112.93,196.415,97.051,188.346,79.34,186.708z M15.83,168.579
	c-0.17-0.361-0.17-0.549-0.132-0.659c0.817,0.026,2.612,0.952,4.198,1.773c2.765,1.438,5.899,3.055,8.805,3.055
	c2.038,0,13.777,0.302,27.372,0.642c19.234,0.489,41.042,1.042,46.431,1.042c1.056,0,1.256-0.021,1.417-0.051
	c0.57-0.094,1.591-0.429,3.335-1.008c1.365-0.455,3.117-1.038,4.637-1.459c-2.758,1.782-7.525,4.007-11.791,4.007
	c-4.496,0-32.663-0.663-53.229-1.14c-12.251-0.29-21.924-0.515-22.859-0.515C22.746,174.267,17.029,171.105,15.83,168.579z
	 M29.714,177.273c2.165,0.056,4.866,0.114,7.915,0.187c2.91,2.238,7.598,6.219,13.063,12.357c-1.991,0.629-3.943,1.344-5.853,2.147
	C38.715,184.772,33.295,180.043,29.714,177.273z M135.287,258.546c0,34.543-28.099,62.65-62.65,62.65
	c-34.543,0-62.643-28.103-62.643-62.65c0-25.879,15.776-48.142,38.223-57.683c0.744,1.008,1.497,2.06,2.25,3.147
	c-21.506,8.775-36.703,29.907-36.703,54.53c0,32.469,26.409,58.887,58.873,58.887c32.471,0,58.882-26.418,58.882-58.887
	c0-0.515-0.005-1.029-0.021-1.535c1.28-0.166,2.53-0.332,3.747-0.488C135.273,257.202,135.287,257.865,135.287,258.546z
	 M128.711,213.187c10.285-6.415,18.864-11.123,22.752-13.198l8.12,25.082h0.004c-5.112,5.606-8.247,13.042-8.337,21.2l-7.277,1.353
	C141.999,234.709,136.588,222.914,128.711,213.187z M164.9,262.025c-0.396,0.268-0.848,0.4-1.289,0.4
	c-0.724,0-1.438-0.341-1.876-0.975c-2.109-3.059-3.522-6.465-4.189-10.111c-0.226-1.237,0.6-2.415,1.833-2.641
	c1.242-0.234,2.424,0.591,2.649,1.829c0.55,3.007,1.71,5.814,3.45,8.332C166.193,259.891,165.93,261.311,164.9,262.025z
	 M165.479,234.377c-1.744,2.519-2.905,5.317-3.454,8.333c-0.204,1.098-1.157,1.867-2.237,1.867c-0.137,0-0.271-0.017-0.413-0.034
	c-1.233-0.233-2.054-1.42-1.832-2.65c0.667-3.645,2.079-7.052,4.189-10.102c0.71-1.029,2.126-1.297,3.165-0.583
	C165.93,231.927,166.193,233.339,165.479,234.377z M181.161,270.485c-0.195,1.098-1.157,1.867-2.229,1.867
	c-0.135,0-0.271-0.017-0.412-0.034c-3.649-0.672-7.049-2.083-10.102-4.194c-1.034-0.705-1.294-2.126-0.579-3.155
	c0.71-1.038,2.127-1.289,3.165-0.582c2.522,1.742,5.325,2.9,8.337,3.449C180.57,268.065,181.395,269.247,181.161,270.485z
	 M198.069,268.124c-3.054,2.111-6.453,3.522-10.103,4.194c-0.137,0.018-0.271,0.034-0.413,0.034c-1.079,0-2.037-0.773-2.237-1.867
	c-0.225-1.238,0.592-2.416,1.83-2.649c3.011-0.549,5.818-1.701,8.336-3.449c1.029-0.707,2.451-0.456,3.165,0.582
	C199.361,265.998,199.107,267.419,198.069,268.124z M208.937,251.345c-0.667,3.646-2.071,7.053-4.181,10.11
	c-0.442,0.63-1.152,0.974-1.876,0.974c-0.442,0-0.894-0.131-1.288-0.399c-1.039-0.714-1.294-2.136-0.584-3.165
	c1.744-2.517,2.906-5.325,3.454-8.333c0.226-1.237,1.407-2.058,2.649-1.828C208.342,248.925,209.158,250.106,208.937,251.345z
	 M201.592,231.213c1.028-0.715,2.449-0.456,3.164,0.583c2.109,3.049,3.514,6.456,4.181,10.103c0.226,1.229-0.595,2.415-1.825,2.649
	c-0.135,0.017-0.28,0.033-0.412,0.033c-1.08,0-2.037-0.773-2.237-1.867c-0.548-3.016-1.71-5.814-3.454-8.333
	C200.293,233.339,200.553,231.927,201.592,231.213z M198.651,228.273c-0.442,0.638-1.152,0.979-1.876,0.979
	c-0.442,0-0.893-0.124-1.289-0.4c-2.521-1.744-5.329-2.9-8.336-3.449c-1.238-0.234-2.055-1.42-1.83-2.65
	c0.23-1.237,1.417-2.059,2.65-1.828c3.65,0.671,7.049,2.066,10.103,4.185C199.107,225.823,199.361,227.244,198.651,228.273z
	 M186.04,214.747c-0.919-0.076-1.854-0.123-2.804-0.123c-5.035,0-9.809,1.161-14.049,3.249l-3.016-9.421l31.042-9.272
	C191.374,204.398,187.601,211.459,186.04,214.747z M352.6,319.125c-33.398,0-60.574-27.176-60.574-60.579
	c0-22.978,12.871-43.024,31.787-53.284c0.271,1.131,0.646,2.387,1.097,3.73c-17.346,9.736-29.085,28.294-29.085,49.554
	c0,31.31,25.479,56.793,56.78,56.793c31.31,0,56.794-25.478,56.794-56.793c0-31.314-25.479-56.785-56.794-56.785
	c-6.665,0-13.08,1.162-19.034,3.288c-0.043-0.183-0.09-0.357-0.119-0.535c-0.209-0.982-0.447-2.063-0.724-3.19
	c6.228-2.174,12.913-3.356,19.877-3.356c33.407,0,60.587,27.181,60.587,60.574C413.188,291.953,386.012,319.125,352.6,319.125z
	 M349.338,257.891c1.004,2.169,3.198,3.68,5.746,3.68c3.496,0,6.334-2.842,6.334-6.338c0-3.506-2.838-6.347-6.334-6.347
	c-0.842,0-1.658,0.175-2.398,0.473c-5.539-10.924-14.398-29.086-17.992-40.319c5.593-2.037,11.633-3.14,17.915-3.14
	c29.044,0,52.659,23.612,52.659,52.646c0,29.035-23.615,52.663-52.659,52.663c-29.03,0-52.646-23.628-52.646-52.663
	c0-19.474,10.633-36.521,26.396-45.627C332.681,228.886,346.836,253.578,349.338,257.891z"/>
</svg>