<svg version="1.1" id="Layer_1" xmlns="http://www.w3.org/2000/svg" xmlns:xlink="http://www.w3.org/1999/xlink" x="0px" y="0px"
	 width="153.792px" height="129.095px" viewBox="4.708 1.655 153.792 129.095" enable-background="new 4.708 1.655 153.792 129.095"
	 xml:space="preserve">
<path fill="none" stroke="#999999" stroke-miterlimit="10" d="M145.542,105.409c0,8.25-6.75,15-15,15H23.208c-8.25,0-15-6.75-15-15
	V18.075c0-8.25,6.75-15,15-15h107.333c8.25,0,15,6.75,15,15V105.409z"/>
<path fill="none" stroke="#999999" stroke-miterlimit="10" d="M155.667,113.75c0,8.25-6.75,15-15,15H33.334c-8.25,0-15-6.75-15-15
	V26.417c0-8.25,6.75-15,15-15h107.333c8.25,0,15,6.75,15,15V113.75z"/>
<g>
	<polyline fill="none" stroke="#999999" stroke-miterlimit="10" points="88.371,41.665 69.872,28.926 88.371,41.665 69.872,54.402 	
		"/>
	<polyline fill="none" stroke="#999999" stroke-miterlimit="10" points="69.872,81.82 88.371,94.558 69.872,81.82 88.371,69.084 	
		"/>
</g>
</svg>
