<svg version="1.1" id="key" xmlns="http://www.w3.org/2000/svg" xmlns:xlink="http://www.w3.org/1999/xlink" x="0px" y="0px"
	 width="153.792px" height="129.094px" viewBox="0 0 153.792 129.094" enable-background="new 0 0 153.792 129.094"
	 xml:space="preserve">
<g>
	<g>
		<path fill="none" stroke="#BCBCBC" stroke-miterlimit="10" d="M7.129,23.137c0-5.5,4.5-10,10-10h19.12c5.5,0,14.5,0,20,0h69.468
			c5.5,0,10,4.5,10,10v75.452c0,5.5-4.5,10-10,10H17.129c-5.5,0-10-4.5-10-10V23.137z"/>
	</g>
	<g>
		<path fill="none" stroke="#BCBCBC" stroke-miterlimit="10" d="M20.206,32.216c0-5.5,4.5-10,10-10h19.12c5.5,0,14.5,0,20,0h69.469
			c5.5,0,10,4.5,10,10v75.453c0,5.5-4.5,10-10,10H30.206c-5.5,0-10-4.5-10-10V32.216z"/>
	</g>
	<g>
		<polyline fill="none" stroke="#999999" stroke-miterlimit="10" points="80.673,49.786 62.174,37.047 80.673,49.786 62.174,62.523 
					"/>
		<polyline fill="none" stroke="#999999" stroke-miterlimit="10" points="62.174,71.942 80.673,84.68 62.174,71.942 80.673,59.205 
					"/>
	</g>
</g>
</svg>
