<?xml version="1.0" encoding="utf-8"?>
<!-- Generator: Adobe Illustrator 16.0.0, SVG Export Plug-In . SVG Version: 6.00 Build 0)  -->
<!DOCTYPE svg PUBLIC "-//W3C//DTD SVG 1.1//EN" "http://www.w3.org/Graphics/SVG/1.1/DTD/svg11.dtd">
<svg version="1.1" id="Layer_1" xmlns="http://www.w3.org/2000/svg" xmlns:xlink="http://www.w3.org/1999/xlink" x="0px" y="0px"
	 width="160px" height="214px" viewBox="0 0 160 214" enable-background="new 0 0 160 214" xml:space="preserve">
<g>
	<g>
		<path fill="none" stroke="#BCBCBC" stroke-miterlimit="10" d="M0.5,10.772C0.5,5.272,5,0.5,10.5,0.5h19.12c5.5,0,14.5,0,20,0
			h90.056c5.5,0,9.824,4.772,9.824,10.272v75.452c0,5.5,0,14.5,0,20V189.5c0,5.5-4.324,10-9.824,10H49.62c-5.5,0-10.12-4.5-10.12-10
			v-83.275c0-5.5-4.38-9.725-9.88-9.725H10.5c-5.5,0-10-4.775-10-10.275V10.772z"/>
	</g>
	<g>
		<path fill="#999999" d="M32.105,48.613h-6.686V37.004h6.686v2.018h-4.224v2.549h3.93v2.017h-3.93v2.993h4.224V48.613z"/>
		<path fill="#999999" d="M42.531,48.613h-2.422v-5.186c0-0.64-0.114-1.12-0.342-1.44s-0.59-0.48-1.088-0.48
			c-0.677,0-1.167,0.226-1.469,0.679c-0.302,0.452-0.453,1.203-0.453,2.251v4.177h-2.422v-8.878h1.85l0.326,1.136h0.135
			c0.27-0.429,0.642-0.753,1.116-0.973s1.013-0.329,1.616-0.329c1.032,0,1.815,0.279,2.35,0.837
			c0.535,0.559,0.802,1.365,0.802,2.418V48.613z"/>
		<path fill="#999999" d="M48.765,46.843c0.423,0,0.932-0.093,1.524-0.278v1.803c-0.604,0.27-1.345,0.405-2.224,0.405
			c-0.969,0-1.674-0.245-2.116-0.735c-0.442-0.489-0.663-1.224-0.663-2.203v-4.28h-1.16v-1.024l1.334-0.81l0.699-1.874h1.549v1.89
			h2.485v1.818h-2.485v4.28c0,0.345,0.096,0.599,0.29,0.763S48.447,46.843,48.765,46.843z"/>
		<path fill="#999999" d="M57.039,39.569c0.328,0,0.601,0.023,0.818,0.071l-0.183,2.271c-0.196-0.053-0.434-0.079-0.715-0.079
			c-0.773,0-1.375,0.198-1.807,0.596c-0.431,0.396-0.647,0.953-0.647,1.667v4.519h-2.422v-8.878h1.834l0.357,1.493h0.119
			c0.275-0.497,0.647-0.898,1.116-1.203C55.979,39.721,56.488,39.569,57.039,39.569z"/>
		<path fill="#999999" d="M63.486,48.772c-1.429,0-2.546-0.395-3.351-1.184s-1.207-1.905-1.207-3.351
			c0-1.487,0.372-2.638,1.116-3.45s1.772-1.219,3.085-1.219c1.254,0,2.231,0.356,2.93,1.071s1.048,1.702,1.048,2.962v1.176h-5.725
			c0.026,0.688,0.23,1.226,0.611,1.611c0.381,0.387,0.916,0.58,1.604,0.58c0.535,0,1.041-0.056,1.517-0.167
			c0.476-0.111,0.974-0.288,1.493-0.532v1.874c-0.424,0.212-0.876,0.369-1.358,0.473C64.767,48.721,64.18,48.772,63.486,48.772z
			 M63.145,41.292c-0.513,0-0.916,0.163-1.207,0.488c-0.292,0.326-0.458,0.788-0.5,1.386h3.398c-0.011-0.598-0.167-1.06-0.468-1.386
			C64.066,41.455,63.658,41.292,63.145,41.292z M61.747,38.759v-0.214c0.911-1.059,1.533-1.855,1.866-2.391h2.716v0.167
			c-0.275,0.275-0.745,0.685-1.41,1.227c-0.665,0.543-1.185,0.946-1.56,1.211H61.747z"/>
		<path fill="#999999" d="M73.094,48.772c-1.429,0-2.546-0.395-3.351-1.184s-1.207-1.905-1.207-3.351
			c0-1.487,0.372-2.638,1.116-3.45s1.772-1.219,3.085-1.219c1.254,0,2.231,0.356,2.93,1.071s1.048,1.702,1.048,2.962v1.176H70.99
			c0.026,0.688,0.23,1.226,0.611,1.611c0.381,0.387,0.916,0.58,1.604,0.58c0.535,0,1.041-0.056,1.517-0.167
			c0.476-0.111,0.974-0.288,1.493-0.532v1.874c-0.424,0.212-0.876,0.369-1.358,0.473C74.375,48.721,73.788,48.772,73.094,48.772z
			 M72.752,41.292c-0.513,0-0.916,0.163-1.207,0.488c-0.292,0.326-0.458,0.788-0.5,1.386h3.398c-0.011-0.598-0.167-1.06-0.468-1.386
			C73.674,41.455,73.266,41.292,72.752,41.292z"/>
	</g>
	<g>
		<path fill="none" stroke="#BCBCBC" stroke-miterlimit="10" d="M10.5,24.772c0-5.5,4.5-10.272,10-10.272h19.12c5.5,0,14.5,0,20,0
			h90.056c5.5,0,9.824,4.772,9.824,10.272v75.452c0,5.5,0,14.5,0,20V203.5c0,5.5-4.324,10-9.824,10H59.62c-5.5,0-10.12-4.5-10.12-10
			v-83.275c0-5.5-4.38-9.725-9.88-9.725H20.5c-5.5,0-10-4.775-10-10.275V24.772z"/>
	</g>
</g>
</svg>
