<svg version="1.1" id="Layer_1" xmlns="http://www.w3.org/2000/svg" xmlns:xlink="http://www.w3.org/1999/xlink" x="0px" y="0px"
	 width="409.309px" height="209.702px" viewBox="0 0 409.309 209.702" enable-background="new 0 0 409.309 209.702"
	 xml:space="preserve">
<g>
	<line class="layout" fill="none" stroke="#999999" stroke-miterlimit="10" x1="193.534" y1="164.259" x2="380.593" y2="145.478"/>
	<g>
		<g class="layout">
			<path fill="none" stroke="#999999" stroke-miterlimit="10" d="M408.759,160.741c0.55,5.473-3.479,10.399-8.951,10.949
				L26.684,209.152c-5.473,0.55-10.4-3.479-10.949-8.951L0.55,48.961c-0.549-5.473,3.479-10.399,8.951-10.949L382.625,0.55
				c5.473-0.55,10.4,3.479,10.949,8.951L408.759,160.741z"/>
		</g>
		<g class="layout">
			<rect x="317.163" y="16.228" transform="matrix(0.995 -0.0999 0.0999 0.995 -0.5102 35.0187)" fill="none" width="64.499" height="12.75"/>
			<path fill="#808080" d="M319.252,27.291l-0.685-6.814l-0.769,0.077c-0.137,0.014-0.236-0.003-0.301-0.049
				c-0.063-0.047-0.1-0.112-0.109-0.199c-0.008-0.087,0.015-0.158,0.068-0.217c0.053-0.058,0.148-0.094,0.284-0.107l3.591-0.361
				c0.713-0.071,1.313,0.076,1.801,0.442c0.487,0.365,0.759,0.825,0.814,1.378c0.07,0.698-0.247,1.3-0.952,1.806
				c0.616,0.153,1.079,0.394,1.392,0.72c0.312,0.326,0.489,0.701,0.532,1.128c0.038,0.381-0.018,0.738-0.167,1.071
				c-0.15,0.334-0.4,0.63-0.753,0.89c-0.352,0.261-0.747,0.412-1.187,0.457l-4.271,0.429c-0.137,0.014-0.237-0.004-0.301-0.053
				c-0.064-0.049-0.102-0.113-0.109-0.195c-0.009-0.087,0.014-0.158,0.067-0.217c0.054-0.058,0.148-0.094,0.284-0.107
				L319.252,27.291z M319.437,23.384l2.021-0.203c0.431-0.043,0.816-0.162,1.159-0.355c0.264-0.156,0.461-0.361,0.591-0.617
				c0.13-0.255,0.183-0.508,0.157-0.758c-0.036-0.358-0.236-0.67-0.603-0.938c-0.365-0.268-0.818-0.374-1.357-0.32l-2.266,0.228
				L319.437,23.384z M319.823,27.233l2.891-0.29c0.368-0.037,0.68-0.15,0.936-0.341s0.441-0.413,0.558-0.668
				c0.116-0.254,0.162-0.511,0.136-0.769c-0.029-0.291-0.158-0.562-0.387-0.813c-0.229-0.252-0.53-0.43-0.902-0.535
				c-0.373-0.104-0.874-0.125-1.504-0.062l-2.055,0.206L319.823,27.233z"/>
			<path fill="#808080" d="M329.655,19.363l0.684,6.814l1.959-0.197c0.137-0.014,0.236,0.003,0.301,0.049
				c0.064,0.047,0.101,0.112,0.109,0.199c0.008,0.082-0.015,0.152-0.068,0.213c-0.053,0.061-0.148,0.098-0.283,0.111l-4.49,0.451
				c-0.136,0.014-0.236-0.004-0.301-0.053c-0.063-0.049-0.1-0.113-0.108-0.195c-0.009-0.087,0.015-0.158,0.067-0.217
				c0.054-0.058,0.148-0.094,0.285-0.107l1.959-0.196l-0.685-6.814l-1.959,0.196c-0.136,0.014-0.236-0.003-0.3-0.049
				c-0.064-0.047-0.102-0.112-0.109-0.199c-0.01-0.087,0.014-0.158,0.066-0.217c0.055-0.058,0.148-0.094,0.285-0.107l4.489-0.451
				c0.136-0.014,0.236,0.003,0.3,0.049c0.064,0.047,0.102,0.112,0.109,0.199c0.01,0.087-0.014,0.158-0.066,0.217
				c-0.055,0.058-0.149,0.094-0.285,0.107L329.655,19.363z"/>
			<path fill="#808080" d="M336.735,18.652l0.685,6.814l3.796-0.381l-0.229-2.271c-0.014-0.136,0.004-0.236,0.053-0.301
				s0.115-0.102,0.201-0.109c0.082-0.009,0.152,0.013,0.213,0.065c0.061,0.05,0.098,0.146,0.111,0.286l0.285,2.844l-6.312,0.634
				c-0.136,0.014-0.237-0.004-0.301-0.053s-0.101-0.113-0.108-0.195c-0.01-0.087,0.014-0.158,0.066-0.217
				c0.055-0.058,0.148-0.094,0.285-0.107l1.36-0.137l-0.685-6.814l-1.359,0.137c-0.137,0.014-0.237-0.003-0.301-0.049
				c-0.064-0.047-0.101-0.112-0.109-0.199s0.014-0.158,0.067-0.217c0.054-0.058,0.148-0.094,0.284-0.107l3.299-0.331
				c0.137-0.014,0.237,0.003,0.301,0.049c0.064,0.047,0.101,0.112,0.109,0.199s-0.014,0.158-0.067,0.217
				c-0.054,0.058-0.148,0.094-0.284,0.107L336.735,18.652z"/>
			<path fill="#808080" d="M345.094,17.813l0.685,6.814l3.796-0.381l-0.229-2.271c-0.014-0.136,0.004-0.236,0.053-0.3
				c0.049-0.065,0.115-0.102,0.201-0.11c0.082-0.008,0.152,0.014,0.213,0.065c0.061,0.051,0.098,0.146,0.111,0.287l0.285,2.844
				l-6.312,0.634c-0.136,0.014-0.237-0.004-0.301-0.053s-0.101-0.113-0.108-0.195c-0.01-0.087,0.014-0.158,0.066-0.217
				c0.055-0.058,0.148-0.094,0.285-0.107l1.36-0.137l-0.685-6.814l-1.359,0.137c-0.137,0.014-0.237-0.003-0.301-0.049
				c-0.064-0.047-0.101-0.112-0.109-0.199s0.014-0.158,0.067-0.217c0.054-0.058,0.148-0.094,0.284-0.107l3.299-0.331
				c0.137-0.014,0.237,0.002,0.301,0.049c0.064,0.046,0.101,0.111,0.109,0.198s-0.014,0.158-0.067,0.218
				c-0.054,0.057-0.148,0.094-0.284,0.107L345.094,17.813z"/>
			<path fill="#808080" d="M352.939,20.604l0.329,3.271l4.394-0.441l-0.169-1.687c-0.014-0.136,0.003-0.236,0.049-0.3
				c0.045-0.065,0.112-0.102,0.198-0.11s0.158,0.014,0.216,0.068c0.059,0.054,0.095,0.148,0.107,0.284l0.228,2.259l-6.306,0.633
				c-0.136,0.014-0.236-0.004-0.301-0.053s-0.1-0.113-0.108-0.195c-0.009-0.087,0.014-0.158,0.067-0.217
				c0.054-0.058,0.148-0.094,0.285-0.107l0.768-0.077l-0.684-6.814l-0.769,0.077c-0.136,0.014-0.236-0.003-0.3-0.049
				c-0.064-0.047-0.102-0.112-0.109-0.199c-0.01-0.087,0.014-0.158,0.066-0.217c0.055-0.058,0.148-0.094,0.285-0.107l6.006-0.603
				l0.197,1.966c0.014,0.137-0.003,0.235-0.049,0.301c-0.046,0.064-0.112,0.1-0.198,0.108s-0.158-0.013-0.216-0.067
				c-0.059-0.054-0.095-0.147-0.107-0.284l-0.141-1.395l-4.095,0.412l0.298,2.971l2.048-0.205l-0.065-0.646
				c-0.014-0.137,0.004-0.236,0.053-0.301c0.049-0.065,0.116-0.101,0.202-0.109c0.081-0.009,0.152,0.013,0.213,0.067
				c0.06,0.054,0.097,0.148,0.11,0.285l0.188,1.863c0.014,0.136-0.004,0.235-0.052,0.3c-0.049,0.065-0.114,0.101-0.195,0.109
				c-0.086,0.009-0.159-0.014-0.22-0.067s-0.098-0.148-0.111-0.284l-0.064-0.646L352.939,20.604z"/>
			<path fill="#808080" d="M363.085,16.007l0.685,6.814l1.482-0.149c0.136-0.014,0.236,0.003,0.301,0.049
				c0.063,0.047,0.1,0.112,0.109,0.199c0.008,0.082-0.016,0.152-0.068,0.213c-0.054,0.061-0.148,0.098-0.284,0.111l-3.544,0.356
				c-0.136,0.014-0.236-0.004-0.301-0.053s-0.101-0.113-0.109-0.195c-0.008-0.087,0.015-0.158,0.068-0.217
				c0.054-0.058,0.148-0.094,0.284-0.107l1.483-0.149l-0.685-6.814l-2.34,0.235l0.198,1.979c0.015,0.142-0.002,0.242-0.048,0.308
				c-0.046,0.064-0.112,0.1-0.198,0.108c-0.082,0.008-0.152-0.014-0.213-0.067s-0.098-0.149-0.111-0.292l-0.257-2.551l6.4-0.643
				l0.257,2.551c0.014,0.142-0.003,0.243-0.049,0.309c-0.046,0.064-0.112,0.1-0.198,0.108s-0.159-0.013-0.217-0.067
				s-0.094-0.15-0.108-0.292l-0.198-1.979L363.085,16.007z"/>
		</g>
		<line class="layout" fill="none" stroke="#999999" stroke-miterlimit="10" x1="32.313" y1="100.043" x2="372.602" y2="65.878"/>
		<line class="layout" fill="none" stroke="#999999" stroke-miterlimit="10" x1="36.208" y1="138.849" x2="376.498" y2="104.683"/>
		<g class="layout">
			<path fill="none" stroke="#999999" stroke-miterlimit="10" d="M82.009,55.962c-21.509-11.398-54.442-7.715-60.38-6.725
				l3.087,30.754l53.324-5.354L82.009,55.962"/>
			<path fill="none" stroke="#999999" stroke-miterlimit="10" d="M65.216,57.958l-1.516,11.979c-0.75,0.144-1.513,0.218-2.278,0.23
				c-2.787,0.051-6.907-1.506-6.131-5.075c0.581-2.666,3.492-4.54,7.198-5.206c0.651-0.105,1.005-1.857,1.005-1.857
				c-0.012,0.002-0.198,0.001-0.511,0.041c-5.32,0.713-8.94,2.538-10.512,5.765c-0.041,0.082-0.08,0.163-0.116,0.247l0.516-4.884
				l-2.569,0.258l-1.016,9.631c-2.044-4.12-4.611-7.988-10.312-8.368c-1.254-0.082-1.835-0.081-3.27,0.07
				c-4.088,0.443-7.655,1.969-8.042,4.406c-0.648,4.117,8.653,2.598,8.751,5.284c0.06,1.633-2.659,2.82-4.918,3.029
				c-1.681,0.149-3.584-0.068-4.652-0.241l-0.653,1.853c1.458,0.159,2.996,0.286,4.606,0.142c6.696-0.608,9.072-3.165,9.152-5.353
				c0.131-3.999-9.209-2.68-8.756-5.225c0.243-1.59,3.184-2.165,4.899-2.325c0.742-0.07,1.385-0.075,1.978-0.023
				c0.322,0.061,0.602-0.303,0.839-1.032c0.013-0.041,0.091-0.079,0.1,0.008c0,0-0.36,3.424-0.468,4.453
				c-0.076,0.719-0.019,1.028,0.905,1.813c0.623,0.533,1.201,1.049,1.259,0.488c0.179-1.741,0.366-3.508,0.549-5.239
				c4.841,4.56,7.587,10.493,7.587,10.493l2.569-0.259l0.558-5.283c0.016,0.065,0.034,0.126,0.053,0.186
				c0.819,2.791,4.884,4.553,9.791,4.187c1.668-0.124,2.876-0.335,3.492-0.682c0.616-0.343,0.97-0.705,1.085-1.63
				c0.091-0.72,0.519-4.095,0.519-4.095l6.439-0.646c0.395-0.04,0.709-0.321,1.16-2.244l-7.325,0.735l0.5-3.96
				c0,0,8.472-0.851,8.476-0.851c0.267-0.027,0.655-0.055,1.118-2.029L65.216,57.958"/>
		</g>
		<g class="letters">			
			<path fill="#999999" d="M42.118,120.601l-0.735,0.074l-4.925-6.699l0.657,6.551l1.055-0.105c0.14-0.016,0.243,0.002,0.307,0.047
				c0.064,0.047,0.101,0.113,0.109,0.199c0.008,0.082-0.015,0.152-0.068,0.213c-0.054,0.061-0.151,0.098-0.291,0.111l-2.102,0.211
				c-0.14,0.014-0.243-0.002-0.308-0.051c-0.064-0.049-0.101-0.113-0.109-0.195c-0.008-0.086,0.014-0.158,0.068-0.217
				c0.054-0.057,0.151-0.094,0.291-0.107l0.477-0.049l-0.685-6.814l-0.769,0.076c-0.136,0.014-0.236-0.002-0.3-0.047
				c-0.064-0.047-0.101-0.113-0.109-0.199c-0.008-0.088,0.014-0.158,0.068-0.217s0.149-0.094,0.285-0.107l1.497-0.15l4.934,6.713
				l-0.659-6.564l-1.055,0.105c-0.136,0.014-0.236-0.002-0.3-0.049c-0.064-0.047-0.101-0.113-0.109-0.199
				c-0.008-0.086,0.013-0.158,0.064-0.217c0.052-0.057,0.148-0.094,0.288-0.107l2.109-0.211c0.136-0.014,0.236,0.002,0.3,0.049
				c0.063,0.047,0.101,0.111,0.109,0.199c0.009,0.086-0.014,0.158-0.067,0.217c-0.054,0.057-0.149,0.092-0.285,0.105l-0.483,0.049
				L42.118,120.601z"/>
			<path fill="#999999" d="M49.321,119.878l-0.083-0.822c-0.76,0.781-1.612,1.219-2.555,1.314c-0.685,0.068-1.238-0.053-1.658-0.359
				c-0.42-0.309-0.656-0.715-0.706-1.219c-0.056-0.553,0.15-1.061,0.617-1.523c0.466-0.465,1.187-0.746,2.162-0.844
				c0.263-0.025,0.55-0.037,0.862-0.033c0.312,0.002,0.65,0.021,1.016,0.059l-0.093-0.926c-0.031-0.313-0.204-0.57-0.518-0.771
				c-0.313-0.203-0.76-0.273-1.341-0.217c-0.444,0.045-1.055,0.236-1.831,0.576c-0.141,0.061-0.232,0.092-0.272,0.096
				c-0.073,0.008-0.138-0.014-0.195-0.063c-0.058-0.049-0.091-0.115-0.099-0.195c-0.008-0.078,0.009-0.141,0.05-0.191
				c0.057-0.074,0.303-0.193,0.741-0.355c0.688-0.262,1.213-0.41,1.576-0.447c0.721-0.072,1.301,0.049,1.741,0.365
				c0.439,0.314,0.682,0.697,0.727,1.146l0.38,3.781l0.762-0.076c0.14-0.016,0.243,0.002,0.307,0.047
				c0.064,0.047,0.101,0.113,0.109,0.199c0.008,0.082-0.015,0.152-0.068,0.213c-0.054,0.061-0.151,0.098-0.291,0.111L49.321,119.878
				z M49.036,117.035c-0.275-0.049-0.564-0.078-0.868-0.084c-0.303-0.006-0.62,0.008-0.951,0.041
				c-0.83,0.082-1.46,0.326-1.891,0.732c-0.327,0.303-0.472,0.639-0.434,1.012c0.035,0.346,0.198,0.621,0.492,0.83
				s0.699,0.287,1.216,0.236c0.494-0.051,0.943-0.193,1.348-0.436c0.404-0.238,0.809-0.598,1.215-1.072L49.036,117.035z"/>
			<path fill="#999999" d="M53.6,113.5l0.086,0.863c0.358-0.443,0.691-0.758,0.998-0.945c0.307-0.188,0.662-0.299,1.065-0.34
				c0.436-0.043,0.842,0.01,1.218,0.158c0.268,0.111,0.521,0.313,0.759,0.609c0.238,0.293,0.373,0.605,0.407,0.938l0.361,3.598
				l0.483-0.049c0.136-0.014,0.236,0.004,0.3,0.049c0.064,0.047,0.101,0.113,0.109,0.199c0.008,0.082-0.015,0.152-0.068,0.213
				c-0.054,0.061-0.148,0.098-0.284,0.111l-1.531,0.152c-0.14,0.014-0.243-0.002-0.308-0.051c-0.064-0.049-0.101-0.113-0.109-0.195
				c-0.008-0.086,0.014-0.158,0.068-0.217c0.054-0.057,0.151-0.094,0.291-0.107l0.477-0.049l-0.352-3.502
				c-0.041-0.404-0.222-0.73-0.544-0.979c-0.323-0.25-0.731-0.35-1.226-0.301c-0.376,0.039-0.696,0.146-0.957,0.328
				c-0.261,0.178-0.618,0.596-1.07,1.25l0.359,3.584l0.646-0.064c0.136-0.014,0.236,0.002,0.301,0.049
				c0.063,0.047,0.101,0.111,0.109,0.199c0.008,0.08-0.015,0.152-0.068,0.213c-0.054,0.061-0.148,0.096-0.284,0.109l-1.864,0.188
				c-0.136,0.014-0.237-0.002-0.301-0.051s-0.101-0.115-0.109-0.195c-0.009-0.088,0.014-0.158,0.067-0.217
				c0.054-0.059,0.148-0.094,0.285-0.107l0.646-0.066l-0.476-4.74l-0.483,0.049c-0.136,0.014-0.236-0.004-0.301-0.053
				c-0.064-0.049-0.101-0.115-0.11-0.201c-0.008-0.082,0.015-0.152,0.068-0.213s0.148-0.098,0.284-0.111L53.6,113.5z"/>
			<path fill="#999999" d="M62.632,112.593l3.102-0.313c0.136-0.014,0.236,0.004,0.301,0.053c0.064,0.049,0.101,0.115,0.109,0.201
				c0.008,0.082-0.015,0.152-0.068,0.213c-0.054,0.061-0.148,0.098-0.284,0.111l-3.102,0.313l0.381,3.801
				c0.034,0.332,0.194,0.594,0.481,0.791c0.288,0.195,0.688,0.268,1.2,0.215c0.385-0.039,0.797-0.137,1.234-0.299
				c0.437-0.16,0.773-0.326,1.008-0.496c0.084-0.068,0.156-0.104,0.215-0.109c0.073-0.008,0.139,0.014,0.199,0.064
				c0.061,0.051,0.094,0.115,0.102,0.193c0.007,0.068-0.017,0.133-0.069,0.199c-0.13,0.164-0.466,0.361-1.009,0.594
				c-0.542,0.229-1.069,0.369-1.582,0.422c-0.667,0.066-1.213-0.037-1.639-0.309c-0.426-0.275-0.666-0.678-0.719-1.207l-0.381-3.803
				l-1.054,0.107c-0.136,0.014-0.236-0.004-0.301-0.053c-0.064-0.049-0.101-0.115-0.109-0.203c-0.008-0.08,0.015-0.152,0.068-0.213
				c0.053-0.059,0.148-0.096,0.284-0.109l1.054-0.107l-0.169-1.688c-0.014-0.135,0.004-0.234,0.053-0.299
				c0.048-0.066,0.113-0.102,0.195-0.109c0.086-0.01,0.16,0.014,0.22,0.066c0.061,0.055,0.097,0.148,0.111,0.285L62.632,112.593z"/>
			<path fill="#999999" d="M75.566,114.406l-5.823,0.586c0.174,0.729,0.543,1.293,1.108,1.691c0.565,0.398,1.23,0.561,1.997,0.482
				c0.426-0.043,0.866-0.156,1.318-0.346c0.453-0.188,0.815-0.41,1.087-0.672c0.079-0.076,0.15-0.117,0.214-0.123
				c0.072-0.008,0.139,0.014,0.199,0.064c0.061,0.051,0.094,0.117,0.102,0.193c0.008,0.076-0.021,0.154-0.085,0.234
				c-0.195,0.248-0.561,0.5-1.097,0.752c-0.535,0.254-1.096,0.41-1.681,0.469c-0.979,0.098-1.829-0.141-2.549-0.717
				c-0.72-0.576-1.125-1.32-1.217-2.23c-0.083-0.83,0.152-1.572,0.708-2.229s1.286-1.029,2.192-1.119
				c0.935-0.094,1.734,0.133,2.398,0.684C75.101,112.675,75.478,113.435,75.566,114.406z M74.93,113.886
				c-0.177-0.619-0.526-1.102-1.049-1.447c-0.522-0.346-1.117-0.486-1.784-0.418c-0.667,0.066-1.221,0.318-1.662,0.758
				c-0.441,0.438-0.689,0.982-0.743,1.633L74.93,113.886z"/>
			<path fill="#999999" d="M82.45,110.98c-0.013-0.131,0.004-0.229,0.053-0.293c0.049-0.064,0.114-0.102,0.195-0.109
				c0.086-0.008,0.159,0.014,0.22,0.066c0.06,0.055,0.098,0.15,0.111,0.293l0.099,0.979c0.014,0.137-0.004,0.236-0.052,0.301
				c-0.049,0.064-0.116,0.102-0.202,0.109c-0.077,0.008-0.145-0.01-0.201-0.055s-0.096-0.123-0.117-0.236
				c-0.055-0.27-0.217-0.479-0.489-0.631c-0.397-0.217-0.902-0.293-1.514-0.232c-0.639,0.064-1.123,0.242-1.451,0.537
				c-0.248,0.223-0.36,0.453-0.335,0.693c0.027,0.271,0.208,0.482,0.544,0.633c0.23,0.105,0.653,0.16,1.267,0.168
				c0.802,0.006,1.363,0.047,1.682,0.127c0.456,0.113,0.806,0.301,1.049,0.561c0.244,0.26,0.382,0.553,0.415,0.879
				c0.049,0.484-0.142,0.941-0.571,1.365c-0.429,0.426-1.095,0.684-1.997,0.775c-0.902,0.09-1.665-0.066-2.286-0.465
				c0.016,0.154,0.016,0.254,0.002,0.301c-0.013,0.049-0.042,0.09-0.087,0.127c-0.044,0.035-0.096,0.057-0.155,0.063
				c-0.082,0.008-0.153-0.014-0.213-0.066c-0.06-0.055-0.097-0.148-0.111-0.285l-0.118-1.178c-0.014-0.135,0.003-0.234,0.049-0.299
				s0.112-0.102,0.198-0.109c0.082-0.008,0.153,0.014,0.216,0.064c0.062,0.051,0.098,0.123,0.108,0.219
				c0.021,0.209,0.09,0.379,0.208,0.508c0.181,0.203,0.452,0.357,0.813,0.465c0.361,0.109,0.794,0.137,1.297,0.086
				c0.744-0.074,1.283-0.268,1.618-0.582c0.335-0.313,0.487-0.623,0.457-0.932c-0.036-0.354-0.248-0.619-0.637-0.795
				c-0.393-0.176-0.948-0.264-1.665-0.266c-0.717,0-1.235-0.045-1.556-0.131c-0.32-0.088-0.578-0.24-0.774-0.459
				c-0.196-0.219-0.308-0.465-0.335-0.736c-0.049-0.49,0.152-0.902,0.604-1.238c0.452-0.336,1.012-0.537,1.678-0.605
				C81.256,110.517,81.917,110.644,82.45,110.98z"/>
			<path fill="#999999" d="M100.313,110.369l0.082,0.816l-5.829,0.586l-0.082-0.816L100.313,110.369z"/>
			<path fill="#999999" d="M116.167,110.48l-3.754,0.377l-0.56,2.166l1.096-0.109c0.136-0.014,0.236,0.002,0.3,0.049
				c0.064,0.047,0.101,0.111,0.109,0.199c0.008,0.08-0.014,0.152-0.068,0.213c-0.053,0.061-0.148,0.096-0.284,0.109l-2.136,0.215
				c-0.136,0.014-0.236-0.004-0.301-0.053c-0.064-0.049-0.101-0.113-0.109-0.193c-0.009-0.088,0.014-0.16,0.067-0.219
				c0.054-0.057,0.149-0.094,0.285-0.107l0.442-0.043l1.839-7.07l-1.687,0.17c-0.136,0.014-0.236-0.002-0.3-0.048
				c-0.064-0.047-0.101-0.113-0.109-0.199c-0.008-0.087,0.014-0.158,0.068-0.217c0.053-0.058,0.148-0.094,0.285-0.107l2.877-0.289
				l3.53,7.106l0.442-0.043c0.136-0.014,0.236,0.002,0.3,0.049c0.064,0.047,0.101,0.111,0.109,0.199
				c0.008,0.08-0.015,0.152-0.068,0.213s-0.148,0.096-0.284,0.109l-2.129,0.215c-0.141,0.014-0.244-0.002-0.308-0.051
				s-0.101-0.115-0.109-0.195c-0.009-0.088,0.014-0.158,0.067-0.217c0.054-0.059,0.151-0.096,0.292-0.109l1.088-0.109
				L116.167,110.48z M115.892,109.931l-1.996-3.998l-0.21,0.021l-1.113,4.31L115.892,109.931z"/>
			<path fill="#999999" d="M120.475,106.785l0.086,0.863c0.358-0.443,0.691-0.758,0.998-0.943c0.307-0.188,0.662-0.301,1.065-0.342
				c0.435-0.043,0.841,0.01,1.218,0.16c0.268,0.111,0.521,0.313,0.759,0.607c0.237,0.293,0.373,0.607,0.406,0.938l0.361,3.598
				l0.482-0.049c0.137-0.014,0.237,0.004,0.301,0.049c0.064,0.047,0.101,0.113,0.109,0.199c0.008,0.082-0.014,0.152-0.068,0.213
				c-0.053,0.061-0.148,0.098-0.284,0.111l-1.53,0.154c-0.14,0.014-0.243-0.004-0.308-0.053c-0.064-0.049-0.101-0.113-0.109-0.195
				c-0.008-0.086,0.014-0.158,0.068-0.217c0.054-0.057,0.151-0.094,0.291-0.107l0.477-0.047l-0.352-3.504
				c-0.041-0.402-0.222-0.73-0.544-0.979c-0.323-0.25-0.731-0.35-1.226-0.299c-0.376,0.037-0.696,0.145-0.957,0.326
				c-0.261,0.18-0.618,0.596-1.07,1.25l0.359,3.584l0.646-0.064c0.136-0.014,0.236,0.004,0.301,0.049
				c0.063,0.047,0.101,0.113,0.109,0.199c0.008,0.082-0.015,0.152-0.068,0.213c-0.054,0.061-0.148,0.098-0.284,0.111l-1.864,0.186
				c-0.136,0.014-0.237-0.002-0.301-0.051c-0.064-0.049-0.101-0.115-0.109-0.195c-0.009-0.088,0.014-0.158,0.067-0.217
				s0.148-0.094,0.285-0.107l0.646-0.064l-0.476-4.74l-0.483,0.047c-0.136,0.014-0.237-0.002-0.301-0.051s-0.101-0.115-0.11-0.203
				c-0.008-0.08,0.015-0.152,0.068-0.213c0.053-0.059,0.148-0.098,0.284-0.111L120.475,106.785z"/>
			<path fill="#999999" d="M132.707,106.615l-0.105-1.047l1.34-0.134c0.136-0.014,0.236,0.004,0.301,0.051
				c0.064,0.049,0.101,0.116,0.109,0.202c0.008,0.082-0.015,0.152-0.068,0.213c-0.054,0.062-0.148,0.099-0.284,0.112l-0.769,0.077
				l0.573,5.706c0.038,0.381-0.01,0.73-0.143,1.045c-0.089,0.211-0.25,0.436-0.482,0.674c-0.233,0.238-0.449,0.414-0.648,0.525
				c-0.2,0.111-0.474,0.186-0.823,0.221l-1.619,0.162c-0.136,0.014-0.236-0.004-0.3-0.049s-0.101-0.111-0.109-0.199
				c-0.009-0.086,0.014-0.158,0.067-0.221c0.053-0.059,0.148-0.096,0.284-0.109l1.64-0.158c0.336-0.033,0.63-0.15,0.882-0.35
				c0.252-0.199,0.451-0.473,0.594-0.822c0.081-0.201,0.106-0.449,0.076-0.742l-0.172-1.715c-0.528,0.9-1.274,1.398-2.24,1.496
				c-0.785,0.078-1.491-0.145-2.118-0.67s-0.983-1.199-1.065-2.02s0.132-1.551,0.643-2.188c0.511-0.637,1.158-0.996,1.943-1.074
				C131.181,105.504,132.011,105.842,132.707,106.615z M132.88,108.335c-0.067-0.672-0.354-1.215-0.861-1.631
				c-0.506-0.416-1.079-0.592-1.719-0.528c-0.639,0.064-1.165,0.352-1.576,0.862c-0.411,0.512-0.583,1.1-0.517,1.766
				c0.067,0.672,0.354,1.217,0.858,1.635c0.505,0.42,1.077,0.598,1.716,0.533c0.64-0.064,1.166-0.352,1.579-0.863
				C132.774,109.597,132.947,109.007,132.88,108.335z"/>
			<path fill="#999999" d="M142.44,107.693l-5.822,0.584c0.174,0.729,0.543,1.293,1.108,1.691s1.23,0.561,1.997,0.482
				c0.426-0.041,0.866-0.156,1.318-0.344s0.815-0.412,1.087-0.674c0.079-0.076,0.151-0.117,0.214-0.123
				c0.072-0.008,0.139,0.014,0.199,0.064c0.06,0.053,0.094,0.117,0.102,0.193c0.008,0.076-0.021,0.154-0.086,0.234
				c-0.194,0.25-0.56,0.5-1.096,0.754c-0.535,0.254-1.096,0.408-1.681,0.467c-0.979,0.098-1.829-0.141-2.549-0.717
				s-1.125-1.318-1.217-2.23c-0.083-0.83,0.152-1.572,0.708-2.228c0.555-0.655,1.286-1.029,2.192-1.12
				c0.935-0.094,1.734,0.134,2.397,0.684C141.976,105.96,142.353,106.72,142.44,107.693z M141.804,107.171
				c-0.176-0.619-0.525-1.101-1.049-1.447c-0.522-0.346-1.117-0.485-1.783-0.419c-0.667,0.067-1.221,0.32-1.662,0.758
				c-0.441,0.438-0.689,0.983-0.743,1.633L141.804,107.171z"/>
			<path fill="#999999" d="M146.716,104.15l0.145,1.441c0.676-0.745,1.19-1.232,1.54-1.463c0.35-0.229,0.682-0.361,0.994-0.393
				c0.34-0.034,0.668,0.05,0.984,0.249s0.479,0.359,0.491,0.477c0.009,0.087-0.013,0.16-0.063,0.222
				c-0.051,0.063-0.12,0.099-0.206,0.106c-0.045,0.005-0.085,0.001-0.118-0.011c-0.033-0.013-0.098-0.058-0.192-0.137
				c-0.174-0.142-0.324-0.236-0.447-0.284c-0.124-0.048-0.243-0.065-0.356-0.054c-0.249,0.024-0.54,0.155-0.872,0.391
				c-0.331,0.234-0.891,0.782-1.679,1.645l0.314,3.128l2.53-0.254c0.141-0.014,0.244,0.002,0.308,0.049
				c0.063,0.047,0.101,0.111,0.109,0.199c0.008,0.08-0.015,0.152-0.068,0.213s-0.15,0.098-0.291,0.111l-4.482,0.449
				c-0.136,0.014-0.236-0.002-0.3-0.047c-0.064-0.047-0.101-0.111-0.108-0.193c-0.008-0.076,0.014-0.145,0.065-0.201
				c0.052-0.059,0.148-0.096,0.288-0.109l1.381-0.139l-0.478-4.76l-1.054,0.105c-0.136,0.014-0.237-0.004-0.301-0.053
				c-0.064-0.048-0.101-0.114-0.11-0.202c-0.008-0.08,0.014-0.151,0.065-0.212c0.051-0.06,0.147-0.097,0.288-0.111L146.716,104.15z"
				/>
			<path fill="#999999" d="M157.684,103.427c-0.013-0.132,0.004-0.229,0.053-0.294c0.048-0.064,0.114-0.1,0.195-0.108
				c0.086-0.009,0.159,0.014,0.22,0.066c0.06,0.055,0.098,0.15,0.111,0.292l0.099,0.979c0.014,0.136-0.004,0.235-0.052,0.3
				c-0.049,0.065-0.116,0.102-0.202,0.11c-0.077,0.008-0.145-0.011-0.201-0.056c-0.057-0.045-0.096-0.123-0.117-0.236
				c-0.055-0.269-0.218-0.479-0.489-0.63c-0.397-0.217-0.902-0.294-1.514-0.232c-0.639,0.063-1.123,0.242-1.451,0.537
				c-0.248,0.222-0.36,0.453-0.335,0.692c0.027,0.272,0.208,0.483,0.544,0.633c0.23,0.105,0.652,0.161,1.267,0.168
				c0.802,0.007,1.363,0.049,1.682,0.127c0.455,0.114,0.806,0.302,1.049,0.562c0.244,0.258,0.382,0.553,0.415,0.879
				c0.049,0.484-0.142,0.939-0.571,1.365c-0.429,0.426-1.095,0.684-1.997,0.773s-1.665-0.064-2.286-0.463
				c0.016,0.154,0.016,0.254,0.002,0.301c-0.013,0.047-0.042,0.09-0.087,0.127c-0.044,0.035-0.096,0.057-0.155,0.063
				c-0.082,0.008-0.153-0.014-0.213-0.068c-0.061-0.053-0.097-0.148-0.111-0.285l-0.118-1.176c-0.014-0.137,0.002-0.234,0.049-0.301
				c0.045-0.064,0.112-0.1,0.198-0.109c0.082-0.008,0.153,0.014,0.216,0.064c0.062,0.053,0.098,0.125,0.108,0.221
				c0.021,0.209,0.09,0.377,0.208,0.508c0.181,0.201,0.452,0.357,0.813,0.463c0.361,0.109,0.793,0.139,1.297,0.088
				c0.744-0.076,1.283-0.268,1.618-0.582c0.335-0.313,0.487-0.625,0.456-0.932c-0.036-0.354-0.248-0.619-0.636-0.795
				c-0.393-0.176-0.948-0.264-1.665-0.266c-0.717-0.001-1.236-0.046-1.556-0.132c-0.32-0.088-0.578-0.24-0.774-0.458
				c-0.196-0.219-0.308-0.465-0.335-0.736c-0.049-0.49,0.152-0.902,0.604-1.239c0.452-0.336,1.011-0.537,1.678-0.604
				C156.49,102.963,157.151,103.091,157.684,103.427z"/>
			<path fill="#999999" d="M175.547,102.815l0.082,0.816l-5.829,0.585l-0.082-0.816L175.547,102.815z"/>
			<path fill="#999999" d="M192.586,105.494l-0.734,0.074l-4.925-6.699l0.658,6.55l1.054-0.105c0.141-0.014,0.244,0.002,0.308,0.048
				c0.064,0.047,0.101,0.112,0.109,0.199c0.008,0.081-0.014,0.152-0.068,0.213c-0.053,0.061-0.15,0.098-0.291,0.111l-2.102,0.211
				c-0.141,0.014-0.244-0.002-0.308-0.051s-0.101-0.114-0.109-0.195c-0.008-0.087,0.014-0.158,0.068-0.217
				c0.053-0.058,0.15-0.094,0.291-0.108l0.477-0.048l-0.685-6.815l-0.769,0.077c-0.136,0.014-0.236-0.002-0.3-0.048
				c-0.064-0.047-0.101-0.113-0.109-0.199c-0.008-0.087,0.014-0.158,0.068-0.217c0.053-0.058,0.148-0.094,0.285-0.107l1.496-0.15
				l4.934,6.713l-0.659-6.564l-1.054,0.105c-0.136,0.014-0.236-0.002-0.3-0.048c-0.064-0.047-0.101-0.113-0.109-0.199
				c-0.008-0.087,0.013-0.158,0.064-0.216c0.051-0.058,0.147-0.094,0.288-0.108l2.108-0.212c0.136-0.014,0.236,0.003,0.3,0.049
				c0.064,0.047,0.101,0.112,0.109,0.199c0.009,0.086-0.014,0.158-0.067,0.217c-0.053,0.058-0.148,0.093-0.285,0.106l-0.483,0.049
				L192.586,105.494z"/>
			<path fill="#999999" d="M199.79,104.771l-0.083-0.822c-0.76,0.782-1.611,1.22-2.555,1.314c-0.685,0.068-1.237-0.052-1.657-0.358
				c-0.42-0.309-0.656-0.715-0.706-1.219c-0.056-0.553,0.15-1.061,0.616-1.524s1.187-0.744,2.162-0.843
				c0.263-0.026,0.55-0.038,0.862-0.034c0.312,0.003,0.651,0.021,1.016,0.059l-0.093-0.925c-0.032-0.313-0.204-0.57-0.517-0.772
				s-0.76-0.273-1.341-0.216c-0.444,0.045-1.055,0.236-1.832,0.576c-0.14,0.061-0.231,0.091-0.272,0.095
				c-0.072,0.008-0.138-0.013-0.195-0.062c-0.058-0.05-0.091-0.115-0.099-0.196c-0.008-0.077,0.009-0.141,0.049-0.19
				c0.057-0.075,0.304-0.193,0.741-0.356c0.688-0.262,1.213-0.41,1.577-0.446c0.721-0.072,1.3,0.049,1.74,0.364
				c0.439,0.315,0.682,0.697,0.727,1.146l0.379,3.781l0.762-0.076c0.141-0.015,0.244,0.002,0.308,0.048
				c0.064,0.047,0.101,0.112,0.109,0.199c0.008,0.081-0.014,0.152-0.068,0.213c-0.053,0.061-0.15,0.097-0.291,0.111L199.79,104.771z
				 M199.504,101.928c-0.275-0.05-0.564-0.078-0.867-0.084c-0.303-0.006-0.62,0.007-0.951,0.04c-0.83,0.083-1.46,0.327-1.891,0.732
				c-0.327,0.303-0.472,0.641-0.435,1.013c0.035,0.346,0.199,0.621,0.492,0.83s0.699,0.287,1.216,0.235
				c0.494-0.05,0.943-0.193,1.347-0.435c0.404-0.239,0.81-0.598,1.215-1.073L199.504,101.928z"/>
			<path fill="#999999" d="M204.068,98.393l0.086,0.863c0.358-0.443,0.691-0.758,0.998-0.944c0.307-0.188,0.662-0.301,1.065-0.341
				c0.436-0.044,0.842,0.009,1.219,0.158c0.268,0.111,0.52,0.313,0.758,0.608c0.238,0.294,0.374,0.606,0.407,0.938l0.361,3.598
				l0.482-0.049c0.137-0.014,0.237,0.003,0.301,0.049c0.063,0.047,0.101,0.112,0.108,0.199c0.009,0.081-0.014,0.152-0.067,0.213
				s-0.147,0.097-0.284,0.11l-1.53,0.153c-0.141,0.015-0.243-0.002-0.308-0.051s-0.101-0.114-0.109-0.195
				c-0.008-0.087,0.014-0.158,0.068-0.217c0.053-0.058,0.15-0.094,0.291-0.108l0.477-0.048l-0.352-3.503
				c-0.041-0.403-0.223-0.73-0.545-0.978c-0.324-0.251-0.731-0.35-1.226-0.301c-0.376,0.038-0.696,0.146-0.957,0.327
				c-0.261,0.179-0.618,0.596-1.07,1.251l0.359,3.584l0.646-0.065c0.136-0.014,0.236,0.003,0.3,0.049
				c0.064,0.047,0.101,0.112,0.109,0.199c0.009,0.081-0.014,0.152-0.068,0.213c-0.053,0.061-0.148,0.097-0.284,0.11l-1.864,0.188
				c-0.136,0.014-0.236-0.003-0.301-0.052c-0.064-0.049-0.101-0.114-0.109-0.195c-0.008-0.087,0.014-0.158,0.068-0.217
				c0.054-0.058,0.148-0.094,0.284-0.107l0.646-0.065l-0.476-4.74l-0.483,0.049c-0.136,0.014-0.237-0.004-0.301-0.053
				c-0.064-0.049-0.101-0.115-0.11-0.202c-0.008-0.081,0.015-0.152,0.068-0.213c0.053-0.06,0.148-0.097,0.284-0.11L204.068,98.393z"
				/>
			<path fill="#999999" d="M213.101,97.485l3.102-0.312c0.136-0.014,0.236,0.004,0.301,0.052c0.063,0.049,0.101,0.116,0.109,0.202
				c0.009,0.082-0.015,0.152-0.067,0.213c-0.054,0.061-0.148,0.098-0.285,0.111l-3.102,0.312l0.382,3.802
				c0.034,0.331,0.194,0.594,0.481,0.79s0.688,0.268,1.2,0.216c0.386-0.038,0.797-0.138,1.233-0.299
				c0.438-0.16,0.773-0.326,1.009-0.496c0.085-0.068,0.156-0.104,0.216-0.11c0.072-0.008,0.139,0.014,0.199,0.064
				c0.06,0.053,0.094,0.116,0.102,0.193c0.006,0.068-0.018,0.134-0.07,0.199c-0.13,0.164-0.466,0.361-1.008,0.594
				c-0.543,0.229-1.07,0.37-1.583,0.422c-0.667,0.067-1.212-0.036-1.638-0.309c-0.427-0.274-0.666-0.677-0.72-1.206l-0.382-3.803
				l-1.054,0.106c-0.136,0.014-0.237-0.004-0.301-0.053c-0.064-0.049-0.101-0.115-0.109-0.202c-0.009-0.081,0.015-0.152,0.067-0.213
				c0.053-0.06,0.148-0.097,0.285-0.11l1.054-0.106l-0.169-1.688c-0.014-0.135,0.004-0.234,0.052-0.3s0.114-0.101,0.195-0.109
				c0.086-0.009,0.159,0.014,0.22,0.067c0.061,0.055,0.098,0.148,0.111,0.284L213.101,97.485z"/>
			<path fill="#999999" d="M226.034,99.299l-5.822,0.585c0.174,0.729,0.544,1.293,1.107,1.691c0.565,0.399,1.23,0.561,1.998,0.483
				c0.426-0.043,0.865-0.157,1.318-0.346c0.452-0.188,0.814-0.411,1.086-0.672c0.08-0.077,0.15-0.118,0.215-0.124
				c0.072-0.008,0.139,0.015,0.199,0.064c0.06,0.053,0.094,0.117,0.102,0.193c0.008,0.077-0.021,0.155-0.087,0.235
				c-0.194,0.248-0.56,0.5-1.096,0.752c-0.535,0.254-1.096,0.409-1.681,0.468c-0.979,0.099-1.829-0.14-2.549-0.717
				c-0.72-0.575-1.125-1.319-1.217-2.23c-0.083-0.83,0.152-1.572,0.707-2.229c0.555-0.655,1.285-1.028,2.193-1.119
				c0.934-0.094,1.732,0.134,2.396,0.684C225.569,97.567,225.946,98.327,226.034,99.299z M225.398,98.779
				c-0.177-0.62-0.526-1.102-1.049-1.447c-0.522-0.347-1.116-0.486-1.783-0.419c-0.667,0.066-1.221,0.319-1.662,0.758
				c-0.441,0.438-0.688,0.982-0.743,1.634L225.398,98.779z"/>
			<path fill="#999999" d="M232.918,95.873c-0.014-0.131,0.004-0.229,0.053-0.294c0.049-0.063,0.113-0.101,0.195-0.108
				c0.086-0.009,0.159,0.014,0.219,0.066c0.061,0.055,0.098,0.15,0.112,0.292l0.099,0.979c0.014,0.136-0.004,0.235-0.053,0.3
				c-0.049,0.065-0.115,0.102-0.202,0.11c-0.077,0.008-0.144-0.011-0.201-0.056c-0.057-0.045-0.096-0.122-0.116-0.235
				c-0.055-0.27-0.218-0.479-0.489-0.631c-0.397-0.217-0.901-0.294-1.515-0.232c-0.639,0.063-1.123,0.242-1.45,0.537
				c-0.248,0.222-0.36,0.453-0.336,0.692c0.027,0.272,0.209,0.483,0.544,0.633c0.23,0.105,0.653,0.161,1.268,0.168
				c0.803,0.007,1.363,0.049,1.683,0.127c0.455,0.114,0.806,0.302,1.049,0.562c0.243,0.259,0.382,0.553,0.415,0.879
				c0.049,0.484-0.142,0.94-0.571,1.365c-0.429,0.426-1.095,0.684-1.997,0.774s-1.664-0.064-2.286-0.464
				c0.016,0.154,0.017,0.254,0.003,0.302c-0.014,0.047-0.043,0.089-0.087,0.126c-0.044,0.036-0.097,0.057-0.155,0.063
				c-0.082,0.009-0.152-0.013-0.213-0.067c-0.061-0.054-0.098-0.147-0.111-0.284l-0.117-1.178c-0.014-0.135,0.002-0.234,0.049-0.299
				c0.045-0.065,0.111-0.102,0.197-0.11c0.082-0.008,0.154,0.014,0.217,0.064c0.063,0.052,0.098,0.124,0.107,0.22
				c0.021,0.209,0.091,0.378,0.209,0.508c0.182,0.202,0.452,0.357,0.813,0.464c0.36,0.109,0.794,0.138,1.297,0.087
				c0.743-0.075,1.282-0.268,1.618-0.582c0.334-0.313,0.486-0.624,0.455-0.932c-0.035-0.354-0.247-0.619-0.636-0.795
				c-0.394-0.176-0.948-0.264-1.665-0.266c-0.717-0.001-1.236-0.046-1.557-0.132c-0.32-0.088-0.577-0.24-0.773-0.458
				c-0.196-0.219-0.308-0.465-0.335-0.736c-0.05-0.49,0.152-0.902,0.604-1.239c0.452-0.336,1.011-0.537,1.678-0.604
				C231.724,95.409,232.385,95.537,232.918,95.873z"/>
		</g>
		<g class="letters">
			<rect x="193.315" y="132.106" transform="matrix(0.995 -0.0999 0.0999 0.995 -12.2688 29.5395)" fill="none" width="191.001" height="10.334"/>
			<path fill="#999999" d="M197.877,142.392l0.685,6.816l1.483-0.148c0.136-0.014,0.236,0.002,0.3,0.049
				c0.064,0.045,0.101,0.111,0.109,0.197c0.008,0.082-0.014,0.154-0.068,0.215c-0.053,0.059-0.148,0.096-0.284,0.109l-3.543,0.355
				c-0.136,0.014-0.236-0.004-0.301-0.051c-0.064-0.049-0.101-0.115-0.109-0.195c-0.008-0.088,0.014-0.16,0.068-0.217
				c0.053-0.059,0.148-0.094,0.285-0.107l1.482-0.148l-0.685-6.816l-2.34,0.234l0.199,1.98c0.014,0.141-0.001,0.242-0.048,0.307
				c-0.046,0.064-0.112,0.102-0.199,0.109c-0.082,0.008-0.152-0.014-0.213-0.068c-0.06-0.053-0.098-0.15-0.112-0.291l-0.256-2.551
				l6.4-0.643l0.256,2.551c0.014,0.141-0.001,0.242-0.048,0.307c-0.046,0.064-0.112,0.102-0.199,0.109
				c-0.086,0.01-0.158-0.014-0.216-0.068c-0.058-0.053-0.095-0.148-0.109-0.289l-0.199-1.98L197.877,142.392z"/>
			<path fill="#999999" d="M209.595,145.716c0.087,0.871-0.149,1.645-0.711,2.326c-0.562,0.68-1.282,1.063-2.162,1.15
				c-0.889,0.09-1.674-0.145-2.357-0.701c-0.684-0.557-1.069-1.268-1.156-2.135c-0.087-0.869,0.148-1.646,0.708-2.326
				c0.559-0.684,1.283-1.068,2.172-1.158c0.879-0.088,1.662,0.146,2.348,0.701C209.122,144.126,209.507,144.841,209.595,145.716z
				 M209.017,145.775c-0.071-0.717-0.388-1.301-0.948-1.754c-0.561-0.451-1.204-0.643-1.93-0.568
				c-0.725,0.072-1.318,0.387-1.777,0.945c-0.459,0.557-0.653,1.189-0.582,1.902c0.071,0.707,0.388,1.289,0.948,1.746
				c0.562,0.457,1.205,0.648,1.931,0.576c0.725-0.074,1.318-0.389,1.777-0.945S209.088,146.488,209.017,145.775z"/>
			<path fill="#999999" d="M213.292,142.357l3.102-0.313c0.136-0.014,0.236,0.004,0.301,0.053s0.101,0.115,0.109,0.203
				c0.008,0.08-0.015,0.152-0.068,0.213c-0.053,0.061-0.148,0.096-0.284,0.109l-3.102,0.313l0.382,3.803
				c0.033,0.33,0.193,0.594,0.48,0.789c0.289,0.195,0.688,0.268,1.201,0.217c0.385-0.039,0.797-0.139,1.233-0.301
				c0.438-0.16,0.773-0.326,1.009-0.494c0.085-0.07,0.156-0.105,0.215-0.111c0.073-0.008,0.139,0.014,0.199,0.064
				c0.061,0.053,0.094,0.117,0.102,0.193c0.007,0.068-0.016,0.135-0.069,0.199c-0.13,0.164-0.466,0.361-1.009,0.592
				s-1.069,0.373-1.582,0.424c-0.666,0.066-1.213-0.035-1.639-0.311c-0.426-0.271-0.666-0.674-0.719-1.205l-0.382-3.803
				l-1.054,0.107c-0.137,0.014-0.236-0.004-0.301-0.053s-0.102-0.115-0.109-0.201c-0.009-0.082,0.014-0.152,0.067-0.213
				s0.148-0.098,0.284-0.111l1.055-0.107l-0.17-1.686c-0.014-0.137,0.004-0.236,0.053-0.301s0.113-0.102,0.195-0.109
				c0.086-0.008,0.159,0.014,0.219,0.068c0.061,0.053,0.098,0.148,0.111,0.283L213.292,142.357z"/>
			<path fill="#999999" d="M225.057,147.125l-0.082-0.822c-0.76,0.781-1.611,1.219-2.555,1.314
				c-0.684,0.068-1.236-0.051-1.657-0.359c-0.42-0.309-0.655-0.713-0.706-1.217c-0.056-0.553,0.15-1.061,0.616-1.525
				s1.187-0.744,2.162-0.842c0.263-0.027,0.55-0.039,0.862-0.035c0.312,0.002,0.65,0.021,1.016,0.059l-0.093-0.924
				c-0.031-0.314-0.204-0.57-0.517-0.773c-0.313-0.203-0.761-0.275-1.342-0.217c-0.443,0.045-1.055,0.238-1.83,0.576
				c-0.142,0.061-0.232,0.092-0.273,0.096c-0.072,0.008-0.137-0.014-0.195-0.063c-0.057-0.049-0.09-0.115-0.098-0.195
				c-0.008-0.078,0.009-0.141,0.049-0.191c0.057-0.074,0.304-0.193,0.74-0.355c0.689-0.262,1.215-0.412,1.577-0.447
				c0.722-0.072,1.302,0.049,1.741,0.365c0.438,0.314,0.681,0.697,0.726,1.146l0.38,3.781l0.762-0.076
				c0.141-0.014,0.243,0.002,0.307,0.047c0.064,0.047,0.102,0.113,0.109,0.199c0.009,0.082-0.014,0.152-0.068,0.213
				c-0.053,0.061-0.15,0.098-0.29,0.111L225.057,147.125z M224.772,144.283c-0.275-0.051-0.564-0.08-0.867-0.086
				s-0.62,0.008-0.951,0.041c-0.83,0.084-1.46,0.328-1.891,0.732c-0.327,0.303-0.472,0.641-0.435,1.012
				c0.034,0.346,0.199,0.621,0.492,0.83c0.294,0.211,0.698,0.287,1.216,0.236c0.494-0.051,0.943-0.195,1.348-0.436
				c0.404-0.238,0.809-0.598,1.215-1.072L224.772,144.283z"/>
			<path fill="#999999" d="M231.207,137.886l0.8,7.965l2.244-0.227c0.141-0.014,0.244,0.002,0.308,0.049
				c0.063,0.045,0.101,0.111,0.108,0.199c0.009,0.08-0.014,0.152-0.067,0.213c-0.053,0.059-0.15,0.096-0.291,0.111l-5.061,0.508
				c-0.136,0.014-0.235-0.004-0.301-0.053c-0.063-0.049-0.101-0.113-0.108-0.195c-0.009-0.086,0.014-0.158,0.067-0.217
				c0.054-0.057,0.149-0.094,0.284-0.107l2.245-0.225l-0.741-7.387l-1.646,0.166c-0.137,0.014-0.238-0.004-0.305-0.053
				s-0.104-0.115-0.112-0.201c-0.009-0.082,0.015-0.154,0.067-0.213c0.054-0.061,0.15-0.098,0.291-0.111L231.207,137.886z"/>
			<path fill="#999999" d="M329.713,128.58l0.281,2.795c0.321-0.176,0.632-0.313,0.934-0.412c0.301-0.102,0.59-0.166,0.867-0.195
				c0.717-0.07,1.342,0.121,1.875,0.574c0.533,0.455,0.841,1.094,0.924,1.914c0.09,0.906-0.107,1.668-0.596,2.285
				c-0.488,0.619-1.14,0.967-1.955,1.049c-0.541,0.055-1.072-0.014-1.594-0.203c-0.371-0.133-0.715-0.309-1.029-0.529
				c-0.188-0.133-0.286-0.248-0.297-0.348c-0.008-0.082,0.013-0.154,0.062-0.217s0.109-0.096,0.182-0.104
				c0.077-0.008,0.163,0.023,0.258,0.098c0.749,0.57,1.526,0.814,2.334,0.734c0.667-0.066,1.194-0.35,1.584-0.85
				c0.39-0.498,0.546-1.129,0.47-1.885c-0.064-0.645-0.305-1.143-0.721-1.498c-0.415-0.354-0.913-0.502-1.494-0.443
				c-0.594,0.059-1.172,0.275-1.734,0.646c-0.139,0.088-0.236,0.135-0.295,0.141c-0.082,0.008-0.15-0.012-0.206-0.063
				c-0.056-0.049-0.088-0.123-0.098-0.223l-0.38-3.789l3.985-0.4c0.136-0.014,0.236,0.004,0.301,0.053
				c0.063,0.049,0.101,0.115,0.109,0.203c0.009,0.08-0.015,0.152-0.067,0.211c-0.054,0.061-0.148,0.098-0.285,0.111L329.713,128.58z
				"/>
			<path fill="#999999" d="M339.108,133.599l1.856-0.186l-1.644,3.957c-0.1,0.238-0.234,0.367-0.407,0.385
				c-0.113,0.012-0.214-0.02-0.302-0.09c-0.087-0.072-0.137-0.164-0.147-0.277c-0.005-0.047-0.003-0.096,0.005-0.152
				L339.108,133.599z"/>
			<path fill="#999999" d="M350.928,129.466l0.143,1.414c0.123,1.229-0.071,2.23-0.584,3.006c-0.402,0.609-0.953,0.947-1.65,1.018
				c-0.336,0.033-0.659-0.002-0.969-0.105c-0.311-0.104-0.582-0.266-0.815-0.484c-0.146-0.137-0.314-0.363-0.504-0.678
				c-0.19-0.316-0.333-0.607-0.429-0.879c-0.143-0.379-0.24-0.828-0.293-1.352l-0.143-1.414c-0.123-1.232,0.071-2.238,0.584-3.012
				c0.402-0.609,0.951-0.949,1.65-1.02c0.34-0.033,0.664,0.002,0.972,0.105c0.309,0.104,0.579,0.266,0.812,0.486
				c0.151,0.141,0.32,0.367,0.508,0.684s0.332,0.605,0.432,0.871C350.78,128.486,350.875,128.939,350.928,129.466z M350.365,129.597
				c-0.054-0.539-0.181-1.033-0.379-1.482c-0.198-0.451-0.407-0.805-0.626-1.061c-0.129-0.148-0.29-0.27-0.482-0.365
				c-0.274-0.131-0.572-0.184-0.895-0.15c-0.64,0.064-1.107,0.441-1.405,1.131c-0.297,0.689-0.401,1.469-0.314,2.34l0.126,1.258
				c0.055,0.539,0.181,1.035,0.38,1.488c0.199,0.451,0.409,0.805,0.632,1.063c0.125,0.145,0.283,0.262,0.477,0.357
				c0.274,0.137,0.575,0.189,0.902,0.156c0.635-0.063,1.1-0.439,1.396-1.133c0.298-0.691,0.402-1.473,0.314-2.344L350.365,129.597z"
				/>
			<path fill="#999999" d="M359.288,128.626l0.143,1.414c0.123,1.229-0.071,2.23-0.584,3.006c-0.402,0.609-0.953,0.947-1.65,1.018
				c-0.336,0.033-0.659-0.002-0.969-0.105c-0.311-0.104-0.582-0.266-0.815-0.484c-0.146-0.137-0.314-0.361-0.504-0.678
				c-0.19-0.316-0.333-0.607-0.429-0.879c-0.143-0.379-0.24-0.828-0.293-1.352l-0.143-1.414c-0.123-1.232,0.071-2.238,0.584-3.012
				c0.402-0.609,0.951-0.947,1.65-1.018c0.34-0.035,0.664,0,0.972,0.105c0.309,0.104,0.579,0.266,0.812,0.484
				c0.151,0.141,0.32,0.367,0.508,0.684s0.332,0.605,0.432,0.871C359.139,127.646,359.235,128.099,359.288,128.626z
				 M358.724,128.757c-0.054-0.539-0.181-1.033-0.379-1.482c-0.198-0.451-0.407-0.803-0.626-1.061
				c-0.129-0.146-0.29-0.27-0.482-0.363c-0.275-0.133-0.572-0.184-0.895-0.152c-0.64,0.064-1.107,0.441-1.405,1.131
				c-0.297,0.689-0.401,1.471-0.314,2.34l0.126,1.26c0.055,0.539,0.181,1.033,0.38,1.486s0.409,0.807,0.632,1.063
				c0.125,0.145,0.283,0.264,0.477,0.357c0.274,0.137,0.575,0.189,0.902,0.158c0.635-0.064,1.1-0.441,1.396-1.135
				c0.298-0.691,0.402-1.473,0.314-2.342L358.724,128.757z"/>
			<path fill="#999999" d="M370.255,129.195l-0.565,0.057c-0.181,0.018-0.278-0.041-0.292-0.178c-0.014-0.135,0.07-0.213,0.251-0.23
				l0.545-0.055l-0.062-0.613l-0.544,0.055c-0.182,0.018-0.279-0.039-0.293-0.176s0.07-0.213,0.252-0.23l0.571-0.059
				c-0.05-0.953,0.218-1.789,0.806-2.514c0.587-0.723,1.334-1.129,2.24-1.221c0.943-0.094,1.787,0.145,2.533,0.721l-0.041-0.4
				c-0.025-0.254,0.057-0.391,0.248-0.41c0.189-0.02,0.298,0.1,0.323,0.354l0.159,1.584c0.025,0.26-0.057,0.396-0.246,0.416
				c-0.178,0.018-0.285-0.088-0.321-0.318c-0.069-0.424-0.368-0.773-0.896-1.049c-0.527-0.277-1.088-0.387-1.682-0.326
				c-0.503,0.049-0.941,0.213-1.314,0.488s-0.675,0.639-0.904,1.088c-0.23,0.449-0.341,0.959-0.334,1.531l3.965-0.398
				c0.191-0.02,0.293,0.039,0.307,0.174c0.014,0.137-0.074,0.215-0.266,0.234l-3.985,0.398l0.062,0.613l3.789-0.381
				c0.189-0.02,0.292,0.039,0.306,0.176s-0.075,0.213-0.265,0.232l-3.769,0.379c0.116,0.799,0.503,1.463,1.158,1.992
				s1.392,0.754,2.208,0.672c0.911-0.092,1.682-0.602,2.313-1.529c0.072-0.105,0.152-0.16,0.244-0.17
				c0.181-0.018,0.281,0.061,0.299,0.238c0.008,0.076-0.057,0.221-0.193,0.436c-0.137,0.211-0.341,0.447-0.613,0.703
				c-0.271,0.256-0.574,0.459-0.907,0.609s-0.69,0.244-1.071,0.283c-0.671,0.066-1.292-0.027-1.863-0.287
				c-0.571-0.258-1.053-0.635-1.446-1.129C370.568,130.46,370.333,129.875,370.255,129.195z"/>
		</g>
		
	</g>
</g>

</svg>
