<?xml version="1.0" encoding="utf-8"?>
<!-- Generator: Adobe Illustrator 16.0.0, SVG Export Plug-In . SVG Version: 6.00 Build 0)  -->
<!DOCTYPE svg PUBLIC "-//W3C//DTD SVG 1.1//EN" "http://www.w3.org/Graphics/SVG/1.1/DTD/svg11.dtd">
<svg version="1.1" id="Layer_1" xmlns="http://www.w3.org/2000/svg" xmlns:xlink="http://www.w3.org/1999/xlink" x="0px" y="0px"
	 width="409.309px" height="209.702px" viewBox="0 0 409.309 209.702" enable-background="new 0 0 409.309 209.702"
	 xml:space="preserve">
<g>
	<line fill="none" stroke="#999999" stroke-miterlimit="10" x1="193.534" y1="164.259" x2="380.593" y2="145.478"/>
	<g>
		<g>
			<path fill="none" stroke="#999999" stroke-miterlimit="10" d="M408.759,160.741c0.55,5.473-3.479,10.399-8.951,10.949
				L26.684,209.152c-5.473,0.55-10.4-3.479-10.949-8.951L0.55,48.961c-0.549-5.473,3.479-10.399,8.951-10.949L382.625,0.55
				c5.473-0.55,10.4,3.479,10.949,8.951L408.759,160.741z"/>
		</g>
		
			<rect x="317.163" y="16.228" transform="matrix(0.995 -0.0999 0.0999 0.995 -0.5102 35.0187)" fill="none" width="64.499" height="12.75"/>
		
			<text transform="matrix(0.995 -0.0999 0.0999 0.995 317.5679 28.0371)" fill="#808080" font-family="'CourierNewPSMT'" font-size="14">BILLET</text>
		<line fill="none" stroke="#999999" stroke-miterlimit="10" x1="32.313" y1="100.043" x2="372.602" y2="65.878"/>
		<line fill="none" stroke="#999999" stroke-miterlimit="10" x1="36.208" y1="138.849" x2="376.498" y2="104.683"/>
		<g>
			<path fill="none" stroke="#999999" stroke-miterlimit="10" d="M82.009,55.962c-21.509-11.398-54.442-7.715-60.38-6.725
				l3.087,30.754l53.324-5.354L82.009,55.962"/>
			<path fill="none" stroke="#999999" stroke-miterlimit="10" d="M65.216,57.958l-1.516,11.979c-0.75,0.144-1.513,0.218-2.278,0.23
				c-2.787,0.051-6.907-1.506-6.131-5.075c0.581-2.666,3.492-4.54,7.198-5.206c0.651-0.105,1.005-1.857,1.005-1.857
				c-0.012,0.002-0.198,0.001-0.511,0.041c-5.32,0.713-8.94,2.538-10.512,5.765c-0.041,0.082-0.08,0.163-0.116,0.247l0.516-4.884
				l-2.569,0.258l-1.016,9.631c-2.044-4.12-4.611-7.988-10.312-8.368c-1.254-0.082-1.835-0.081-3.27,0.07
				c-4.088,0.443-7.655,1.969-8.042,4.406c-0.648,4.117,8.653,2.598,8.751,5.284c0.06,1.633-2.659,2.82-4.918,3.029
				c-1.681,0.149-3.584-0.068-4.652-0.241l-0.653,1.853c1.458,0.159,2.996,0.286,4.606,0.142c6.696-0.608,9.072-3.165,9.152-5.353
				c0.131-3.999-9.209-2.68-8.756-5.225c0.243-1.59,3.184-2.165,4.899-2.325c0.742-0.07,1.385-0.075,1.978-0.023
				c0.322,0.061,0.602-0.303,0.839-1.032c0.013-0.041,0.091-0.079,0.1,0.008c0,0-0.36,3.424-0.468,4.453
				c-0.076,0.719-0.019,1.028,0.905,1.813c0.623,0.533,1.201,1.049,1.259,0.488c0.179-1.741,0.366-3.508,0.549-5.239
				c4.841,4.56,7.587,10.493,7.587,10.493l2.569-0.259l0.558-5.283c0.016,0.065,0.034,0.126,0.053,0.186
				c0.819,2.791,4.884,4.553,9.791,4.187c1.668-0.124,2.876-0.335,3.492-0.682c0.616-0.343,0.97-0.705,1.085-1.63
				c0.091-0.72,0.519-4.095,0.519-4.095l6.439-0.646c0.395-0.04,0.709-0.321,1.16-2.244l-7.325,0.735l0.5-3.96
				c0,0,8.472-0.851,8.476-0.851c0.267-0.027,0.655-0.055,1.118-2.029L65.216,57.958"/>
		</g>
		
			<rect x="193.315" y="132.106" transform="matrix(0.995 -0.0999 0.0999 0.995 -12.2688 29.5395)" fill="none" width="191.001" height="10.334"/>
		
			<text transform="matrix(0.995 -0.0999 0.0999 0.995 194.1577 150.2271)" fill="#999999" font-family="'CourierNewPSMT'" font-size="14">Total           5,00 €</text>
		
			<rect x="34.745" y="101.807" transform="matrix(0.995 -0.0999 0.0999 0.995 -10.4837 14.9212)" fill="none" width="218.001" height="20.667"/>
		
			<text transform="matrix(0.995 -0.0999 0.0999 0.995 35.1392 121.3022)" fill="#999999" font-family="'CourierNewPSMT'" font-size="14">Nantes - Angers - Nantes</text>
	</g>
</g>
</svg>
